<?xml version="1.0" encoding="UTF-8" standalone="no"?>
<svg width="87px" height="25px" viewBox="0 0 87 25" version="1.1" xmlns="http://www.w3.org/2000/svg" xmlns:xlink="http://www.w3.org/1999/xlink">
    <!-- Generator: Sketch 3.6.1 (26313) - http://www.bohemiancoding.com/sketch -->
    <title>jaws</title>
    <desc>Created with Sketch.</desc>
    <defs></defs>
    <g id="Welcome" stroke="none" stroke-width="1" fill="none" fill-rule="evenodd">
        <g id="Desktop-HD" transform="translate(-40.000000, -6536.000000)" fill="#00B5FF">
            <g id="footer" transform="translate(40.000000, 6536.000000)">
                <g id="jaws">
                    <path d="M0,20.827655 C0.698717679,22.0826318 1.68891639,23.0345846 2.97129344,23.6863721 C4.25436783,24.3374449 6.04857999,24.6390396 8.38182286,24.6969286 C10.0302945,24.7376653 11.3084876,24.4653725 12.7031337,23.7664162 C12.8488742,18.3169866 14.8487967,13.7630503 14.8487967,13.7630503 C14.8487967,13.7630503 13.8502301,10.6491927 16.7315689,9.06260465 L16.7315689,0.374963327 L10.447991,0.37210461 L10.447991,15.3789401 C10.447991,16.8325978 10.0065855,17.5765789 9.6335177,18.1890591 C9.25975256,18.8029686 8.67469853,19.1081366 7.87486901,19.1081366 C7.37140178,19.1081366 6.98229553,19.0066522 6.70824758,18.7993952 C6.30868148,18.4842216 4.78503065,17.4329284 4.61767313,16.9226474 L0,20.827655" id="Fill-1"></path>
                    <path d="M17.7587257,21.7617408 C17.7587257,21.7617408 21.5117183,22.3592127 21.7969234,21.8274913 C22.0821285,21.2957699 19.8946261,18.0647049 19.8946261,18.0647049 C19.8946261,18.0647049 23.0744192,20.1651473 23.5660319,19.7920847 C24.0576446,19.4197368 23.3031411,15.5626127 23.3031411,15.5626127 C23.3031411,15.5626127 25.4125433,18.7322153 25.9843482,18.6586033 C26.5561531,18.5857061 27.4047952,14.6785544 27.4047952,14.6785544 C27.4047952,14.6785544 28.1049075,18.8794392 28.6815937,19.0602531 C29.2582798,19.241067 31.9067127,15.7534321 31.9067127,15.7534321 C31.9067127,15.7534321 31.009258,19.8878517 31.2379799,20.0708096 C31.5831548,20.3431024 35.3556724,18.5928528 35.3556724,18.5928528 C35.3556724,18.5928528 32.9624598,21.6359572 33.1298173,22.0461831 C33.2971748,22.4571237 37.2475098,22.4263925 37.2475098,22.4263925 C37.2475098,22.4263925 35.6359963,23.9400832 33.6458364,24.7462414 C33.7302124,24.7719699 34.100491,24.758391 34.100491,24.758391 C34.100491,24.758391 40.8143171,24.7648231 40.7961867,24.7462414 C40.7961867,20.6082484 39.8743257,16.9397997 38.5389521,13.7823466 C38.7446624,13.4314391 38.8680885,13.0026315 38.8680885,12.535946 C38.8680885,11.3517224 38.0884814,10.3926228 37.1254783,10.3926228 C37.0397076,10.3926228 36.9581208,10.4090604 36.8751393,10.423354 C33.2274425,4.06199373 28.3503652,0.556491864 28.3503652,0.556491864 C27.8064533,-0.00167265364 26.922945,-0.00167265364 26.3776384,0.556491864 C26.3776384,0.556491864 21.5389139,4.10558917 17.8960983,10.4290714 C17.7998677,10.4090604 17.7036372,10.3926228 17.6025253,10.3926228 C16.6395222,10.3926228 15.8599151,11.3517224 15.8599151,12.535946 C15.8599151,13.0162104 15.9917091,13.4543088 16.2085766,13.8123631 C14.8620458,16.9726749 13.9339088,20.6368356 13.9339088,24.7462414 L21.8206324,24.7462414 C21.2829963,24.5861533 20.9789635,24.4203477 20.9789635,24.4203477 C19.0669037,23.439093 17.7587257,21.7617408 17.7587257,21.7617408 L17.7587257,21.7617408 Z M18.4741791,12.535946 C18.4741791,13.2463372 18.0843755,13.8230833 17.6025253,13.8230833 C17.1220698,13.8230833 16.7315689,13.2463372 16.7315689,12.535946 C16.7315689,11.8255547 17.1220698,11.2495232 17.6025253,11.2495232 C18.0843755,11.2495232 18.4741791,11.8255547 18.4741791,12.535946 L18.4741791,12.535946 Z M37.1254783,11.2495232 C37.6073285,11.2495232 37.9978294,11.8255547 37.9978294,12.535946 C37.9978294,13.2463372 37.6073285,13.8230833 37.1254783,13.8230833 C36.6450227,13.8230833 36.2538245,13.2463372 36.2538245,12.535946 C36.2538245,11.8255547 36.6450227,11.2495232 37.1254783,11.2495232 L37.1254783,11.2495232 Z" id="Fill-3"></path>
                    <path d="M65.7840603,0.38211012 L60.7828595,13.6787181 L55.3995257,0.38211012 L50.4324937,0.38211012 L44.9494427,13.6787181 L40.1637147,0.38211012 L32.36067,0.38211012 C37.1610418,7.31378445 37.6714822,9.05116978 37.6714822,9.05116978 C40.9677282,10.2175264 39.8457354,13.7516154 39.8457354,13.7516154 C39.8457354,13.7516154 42.0715906,17.0069795 42.2173311,24.6904965 L46.6174394,24.6904965 C46.6174394,24.6904965 52.1172262,19.4433212 49.7923512,11.1058727 C58.1588329,13.8452384 59.0820886,24.6904965 59.0820886,24.6904965 L62.9257332,24.6904965 L73.5034263,0.38211012 L65.7840603,0.38211012" id="Fill-7"></path>
                    <path d="M70.0760836,11.1616177 C70.7476057,12.0885567 71.5878799,12.8439727 72.5941171,13.4257217 C73.6003542,14.0074706 74.7620944,14.5320452 76.0793376,14.9987308 C77.2682733,15.3939484 78.1796745,15.7920248 78.8142385,16.1915305 C79.4474078,16.5910362 79.7842148,17.108464 79.8218703,17.7445285 C79.8441846,18.0961507 79.6886816,18.4842216 79.3574532,18.9087411 C79.026922,19.3332606 78.258472,19.581969 77.0534978,19.6555809 C75.7460172,19.7349103 74.5201233,19.5212212 73.3339768,19.147444 C71.9253843,18.7043428 70.882189,18.149037 69.6562951,17.4822412 L67.3697729,22.1319446 C68.6647018,22.6114944 70.4791363,23.5570151 73.7956046,24.3467357 C74.9636207,24.6254607 75.9238345,24.6762029 76.6309201,24.6954992 C77.3394003,24.7147956 77.9356115,24.7097928 78.4209483,24.680491 C80.155888,24.5754331 81.6753549,24.1952237 82.9828356,23.5398628 C84.289619,22.8859313 85.2846989,21.9961556 85.9715621,20.8733944 C86.6563333,19.7499186 86.9547876,18.449917 86.8676222,16.974819 C86.7888247,15.6455155 86.4136649,14.5556296 85.7477214,13.7023025 C85.0803833,12.8482608 84.1857178,12.1135705 83.0651197,11.4989463 C81.941035,10.8836075 80.4529476,10.2053768 78.6001603,9.46353973 C77.5569651,9.03759088 76.8268679,8.66595765 76.4133553,8.34935473 C75.9977508,8.03346649 75.778094,7.64182224 75.7495038,7.17585135 C75.7209135,6.6777199 75.8931523,6.24533893 76.2676148,5.88013782 C76.6406826,5.51636607 77.2668787,5.30767972 78.1455057,5.25336409 C79.4871552,5.17260533 80.7632564,5.36771278 81.9724145,5.84154514 C83.18227,6.31466282 83.6669095,6.90570259 84.6668707,7.53962311 L86.8906339,3.10861157 C86.6089154,2.94423534 84.1641008,1.58563003 83.4242411,1.31119318 C82.6850787,1.03747102 81.761823,0.760175459 80.6363436,0.573644167 C79.5115615,0.384968837 78.5018378,0.279196303 76.978187,0.455722085 C75.845037,0.586508394 74.7035192,0.876668181 74.1428715,1.85720815 L70.0760836,11.1616177" id="Fill-9"></path>
                </g>
            </g>
        </g>
    </g>
</svg>