<?xml version="1.0" encoding="UTF-8" standalone="no"?>
<svg width="33px" height="34px" viewBox="0 0 33 34" version="1.1" xmlns="http://www.w3.org/2000/svg" xmlns:xlink="http://www.w3.org/1999/xlink">
    <!-- Generator: Sketch 41 (35326) - http://www.bohemiancoding.com/sketch -->
    <title>Menu_Portfolio</title>
    <desc>Created with Sketch.</desc>
    <defs></defs>
    <g id="Welcome_desktop" stroke="none" stroke-width="1" fill="none" fill-rule="evenodd" opacity="0.900000036">
        <g id="Portfolio_mobile" transform="translate(-143.000000, -28.000000)">
            <g id="Menu_Portfolio" transform="translate(143.000000, 28.000000)">
                <path d="M16.5,33.3446752 C25.6126984,33.3446752 33,25.9338096 33,16.7920436 C33,7.6502776 25.6126984,0.239412007 16.5,0.239412007 C7.38730163,0.239412007 0,7.6502776 0,16.7920436 C0,25.9338096 7.38730163,33.3446752 16.5,33.3446752 Z" id="Oval" fill-opacity="0.948341259" fill="#404040"></path>
                <rect id="Rectangle-6" fill="#00B5FF" transform="translate(17.000000, 17.000000) rotate(-270.000000) translate(-17.000000, -17.000000) " x="16" y="10" width="2" height="14" rx="1"></rect>
                <rect id="Rectangle-6-Copy-2" fill="#00B5FF" transform="translate(17.000000, 12.000000) rotate(-270.000000) translate(-17.000000, -12.000000) " x="16" y="5" width="2" height="14" rx="1"></rect>
                <rect id="Rectangle-6-Copy-3" fill="#00B5FF" transform="translate(17.000000, 22.000000) rotate(-270.000000) translate(-17.000000, -22.000000) " x="16" y="15" width="2" height="14" rx="1"></rect>
            </g>
        </g>
    </g>
</svg>