<?xml version="1.0" encoding="UTF-8" standalone="no"?>
<svg width="15px" height="29px" viewBox="0 0 15 29" version="1.1" xmlns="http://www.w3.org/2000/svg" xmlns:xlink="http://www.w3.org/1999/xlink">
    <!-- Generator: Sketch 3.6.1 (26313) - http://www.bohemiancoding.com/sketch -->
    <title>Shape</title>
    <desc>Created with Sketch.</desc>
    <defs></defs>
    <g id="Welcome" stroke="none" stroke-width="1" fill="none" fill-rule="evenodd">
        <g id="Desktop-HD" transform="translate(-979.000000, -39.000000)" fill="#00B5FF">
            <g id="header">
                <g id="phone" transform="translate(935.000000, 38.000000)">
                    <path d="M54.1393795,21.1636983 L55.1467822,20.8278974 C55.7408916,20.6212507 56.3866626,20.9570516 56.5933093,21.551161 L58.3756373,27.0014683 C58.582284,27.5955776 58.2464831,28.2413486 57.6523738,28.4479954 L56.644971,28.7837963 L54.1393795,21.1636983 L54.1393795,21.1636983 L54.1393795,21.1636983 Z M49.7997983,15.9716994 C51.4013104,20.8795591 52.5120365,21.4736684 53.2094692,21.4736684 L55.6633991,29.1195972 C53.9843944,29.6620449 51.1171711,27.4147617 50.0839375,26.2265431 C48.2757787,24.1084142 46.5451124,20.7762357 45.4343862,17.340734 C44.168675,13.4144462 43.8070433,10.211422 44.0911825,7.55084541 C44.3236601,5.45854733 45.4860479,2.72047824 46.9584058,2.17803059 L49.4898282,9.95311357 C48.6632413,10.366407 48.3274404,11.4771332 49.7997983,15.9716994 L49.7997983,15.9716994 L49.7997983,15.9716994 Z M47.8624852,1.89389134 L48.869888,1.55809041 C49.4639973,1.35144369 50.1097683,1.68724462 50.3164151,2.28135395 L52.1504047,7.88664633 C52.3570515,8.48075567 52.0212505,9.12652668 51.4271412,9.3331734 L50.4197384,9.66897433 L47.8624852,1.89389134 L47.8624852,1.89389134 L47.8624852,1.89389134 Z" id="Shape"></path>
                </g>
            </g>
        </g>
    </g>
</svg>